<mxfile host="app.diagrams.net" agent="Mozilla/5.0 (Windows NT 10.0; Win64; x64) AppleWebKit/537.36 (KHTML, like Gecko) Chrome/129.0.0.0 Safari/537.36" version="24.7.17">
  <diagram name="第 1 页" id="QuG7LC7sdRnxYOh98Q5U">
    <mxGraphModel dx="954" dy="558" grid="1" gridSize="10" guides="1" tooltips="1" connect="1" arrows="1" fold="1" page="1" pageScale="1" pageWidth="1169" pageHeight="827" math="0" shadow="0">
      <root>
        <mxCell id="0" />
        <mxCell id="1" parent="0" />
        <mxCell id="OboERP0wbvoQKZKiwpHj-6" style="edgeStyle=orthogonalEdgeStyle;rounded=0;orthogonalLoop=1;jettySize=auto;html=1;exitX=1;exitY=0.5;exitDx=0;exitDy=0;entryX=0;entryY=0.5;entryDx=0;entryDy=0;endArrow=none;endFill=0;dashed=1;" edge="1" parent="1" source="OboERP0wbvoQKZKiwpHj-1" target="OboERP0wbvoQKZKiwpHj-4">
          <mxGeometry relative="1" as="geometry" />
        </mxCell>
        <mxCell id="OboERP0wbvoQKZKiwpHj-9" style="edgeStyle=orthogonalEdgeStyle;rounded=0;orthogonalLoop=1;jettySize=auto;html=1;exitX=0.5;exitY=1;exitDx=0;exitDy=0;entryX=0;entryY=0.5;entryDx=0;entryDy=0;endArrow=none;endFill=0;" edge="1" parent="1" source="OboERP0wbvoQKZKiwpHj-1" target="OboERP0wbvoQKZKiwpHj-7">
          <mxGeometry relative="1" as="geometry" />
        </mxCell>
        <mxCell id="OboERP0wbvoQKZKiwpHj-10" style="edgeStyle=orthogonalEdgeStyle;rounded=0;orthogonalLoop=1;jettySize=auto;html=1;exitX=0.5;exitY=0;exitDx=0;exitDy=0;entryX=0;entryY=0.5;entryDx=0;entryDy=0;endArrow=none;endFill=0;" edge="1" parent="1" source="OboERP0wbvoQKZKiwpHj-1" target="OboERP0wbvoQKZKiwpHj-8">
          <mxGeometry relative="1" as="geometry" />
        </mxCell>
        <mxCell id="OboERP0wbvoQKZKiwpHj-1" value="电动机分类" style="rounded=1;whiteSpace=wrap;html=1;" vertex="1" parent="1">
          <mxGeometry x="240" y="240" width="80" height="40" as="geometry" />
        </mxCell>
        <mxCell id="OboERP0wbvoQKZKiwpHj-4" value="BLDC" style="rounded=1;whiteSpace=wrap;html=1;" vertex="1" parent="1">
          <mxGeometry x="400" y="240" width="80" height="40" as="geometry" />
        </mxCell>
        <mxCell id="OboERP0wbvoQKZKiwpHj-7" value="AC" style="rounded=1;whiteSpace=wrap;html=1;" vertex="1" parent="1">
          <mxGeometry x="400" y="320" width="80" height="40" as="geometry" />
        </mxCell>
        <mxCell id="OboERP0wbvoQKZKiwpHj-12" style="edgeStyle=orthogonalEdgeStyle;rounded=0;orthogonalLoop=1;jettySize=auto;html=1;exitX=1;exitY=0.5;exitDx=0;exitDy=0;entryX=0;entryY=0.5;entryDx=0;entryDy=0;endArrow=none;endFill=0;" edge="1" parent="1" source="OboERP0wbvoQKZKiwpHj-8" target="OboERP0wbvoQKZKiwpHj-11">
          <mxGeometry relative="1" as="geometry" />
        </mxCell>
        <mxCell id="OboERP0wbvoQKZKiwpHj-15" style="edgeStyle=orthogonalEdgeStyle;rounded=0;orthogonalLoop=1;jettySize=auto;html=1;exitX=1;exitY=0.5;exitDx=0;exitDy=0;entryX=0;entryY=0.5;entryDx=0;entryDy=0;endArrow=none;endFill=0;" edge="1" parent="1" source="OboERP0wbvoQKZKiwpHj-8" target="OboERP0wbvoQKZKiwpHj-13">
          <mxGeometry relative="1" as="geometry" />
        </mxCell>
        <mxCell id="OboERP0wbvoQKZKiwpHj-8" value="DC" style="rounded=1;whiteSpace=wrap;html=1;" vertex="1" parent="1">
          <mxGeometry x="400" y="160" width="80" height="40" as="geometry" />
        </mxCell>
        <mxCell id="OboERP0wbvoQKZKiwpHj-21" style="edgeStyle=orthogonalEdgeStyle;rounded=0;orthogonalLoop=1;jettySize=auto;html=1;exitX=1;exitY=0.5;exitDx=0;exitDy=0;entryX=0;entryY=0.5;entryDx=0;entryDy=0;endArrow=none;endFill=0;" edge="1" parent="1" source="OboERP0wbvoQKZKiwpHj-11" target="OboERP0wbvoQKZKiwpHj-16">
          <mxGeometry relative="1" as="geometry" />
        </mxCell>
        <mxCell id="OboERP0wbvoQKZKiwpHj-22" style="edgeStyle=orthogonalEdgeStyle;rounded=0;orthogonalLoop=1;jettySize=auto;html=1;exitX=1;exitY=0.5;exitDx=0;exitDy=0;entryX=0;entryY=0.5;entryDx=0;entryDy=0;endArrow=none;endFill=0;" edge="1" parent="1" source="OboERP0wbvoQKZKiwpHj-11" target="OboERP0wbvoQKZKiwpHj-17">
          <mxGeometry relative="1" as="geometry" />
        </mxCell>
        <mxCell id="OboERP0wbvoQKZKiwpHj-11" value="他励" style="rounded=1;whiteSpace=wrap;html=1;" vertex="1" parent="1">
          <mxGeometry x="560" y="140" width="80" height="40" as="geometry" />
        </mxCell>
        <mxCell id="OboERP0wbvoQKZKiwpHj-13" value="自励" style="rounded=1;whiteSpace=wrap;html=1;" vertex="1" parent="1">
          <mxGeometry x="560" y="230" width="80" height="20" as="geometry" />
        </mxCell>
        <mxCell id="OboERP0wbvoQKZKiwpHj-16" value="永磁" style="rounded=1;whiteSpace=wrap;html=1;" vertex="1" parent="1">
          <mxGeometry x="680" y="120" width="80" height="20" as="geometry" />
        </mxCell>
        <mxCell id="OboERP0wbvoQKZKiwpHj-17" value="绕线" style="rounded=1;whiteSpace=wrap;html=1;" vertex="1" parent="1">
          <mxGeometry x="680" y="180" width="80" height="20" as="geometry" />
        </mxCell>
      </root>
    </mxGraphModel>
  </diagram>
</mxfile>
